{
  "extras": {
    "bounding_box": [
      [
        16.81704330444336,
        23.80767059326172,
        -0.05167306214570999
      ],
      [
        17.196001052856445,
        23.80767059326172,
        -0.05167306214570999
      ],
      [
        16.81704330444336,
        26.57370948791504,
        -0.05167306214570999
      ],
      [
        16.81704330444336,
        23.80767059326172,
        2.783582925796509
      ],
      [
        17.196001052856445,
        26.57370948791504,
        2.783582925796509
      ],
      [
        16.81704330444336,
        26.57370948791504,
        2.783582925796509
      ],
      [
        17.196001052856445,
        23.80767059326172,
        2.783582925796509
      ],
      [
        17.196001052856445,
        26.57370948791504,
        -0.05167306214570999
      ]
    ],
    "bounding_box_size": [
      0.37895774841308594,
      2.7660388946533203,
      2.835255987942219
    ],
    "object_id": "urn:uuid:7c64c081-84a7-11ef-8ac3-8c554a00f1ad",
    "object_type": "wall"
  },
  "accessors": [
    {
      "bufferView": 0,
      "byteOffset": 0,
      "componentType": 5125,
      "normalized": false,
      "count": 326448,
      "type": "SCALAR",
      "max": [
        326447.0
      ],
      "min": [
        0.0
      ],
      "name": "buffer-0-accessor-indices-buffer-0-mesh-0"
    },
    {
      "bufferView": 1,
      "byteOffset": 0,
      "componentType": 5126,
      "normalized": false,
      "count": 72544,
      "type": "VEC3",
      "max": [
        17.218288409700975,
        26.5805999621579,
        2.7911215035566608
      ],
      "min": [
        16.80699886011382,
        23.79834712671538,
        -0.06371184063653107
      ],
      "name": "buffer-0-accessor-position-buffer-0-mesh-0"
    },
    {
      "bufferView": 1,
      "byteOffset": 870528,
      "componentType": 5126,
      "normalized": false,
      "count": 72544,
      "type": "VEC3",
      "name": "buffer-0-accessor-color-buffer-0-mesh-0"
    }
  ],
  "asset": {
    "generator": "pygltflib@v1.16.2",
    "version": "2.0"
  },
  "bufferViews": [
    {
      "buffer": 0,
      "byteOffset": 0,
      "byteLength": 1305792,
      "target": 34963,
      "name": "buffer-0-bufferview-uint"
    },
    {
      "buffer": 0,
      "byteOffset": 1305792,
      "byteLength": 1741056,
      "byteStride": 12,
      "target": 34962,
      "name": "buffer-0-bufferview-vec3"
    }
  ],
  "buffers": [
    {
      "uri": "data:application/octet-stream;base64,",
      "byteLength": 3046848
    }
  ],
  "meshes": [
    {
      "primitives": [
        {
          "attributes": {
            "POSITION": 1,
            "COLOR_0": 2
          },
          "indices": 0,
          "mode": 4
        }
      ]
    }
  ],
  "nodes": [
    {
      "mesh": 0
    }
  ],
  "scene": 0,
  "scenes": [
    {
      "nodes": [
        0
      ]
    }
  ]
}