{
  "extras": {
    "bounding_box": [
      [
        14.745891571044922,
        26.960893630981445,
        -0.09770137816667557
      ],
      [
        15.4367094039917,
        26.960893630981445,
        -0.09770137816667557
      ],
      [
        14.745891571044922,
        29.40752601623535,
        -0.09770137816667557
      ],
      [
        14.745891571044922,
        26.960893630981445,
        0.7168855667114258
      ],
      [
        15.4367094039917,
        29.40752601623535,
        0.7168855667114258
      ],
      [
        14.745891571044922,
        29.40752601623535,
        0.7168855667114258
      ],
      [
        15.4367094039917,
        26.960893630981445,
        0.7168855667114258
      ],
      [
        15.4367094039917,
        29.40752601623535,
        -0.09770137816667557
      ]
    ],
    "bounding_box_size": [
      0.6908178329467773,
      2.4466323852539062,
      0.8145869448781013
    ],
    "object_id": "urn:uuid:238022dd-d1a5-11ef-ab40-8c554a00f1ad",
    "object_type": "cabinet"
  },
  "accessors": [
    {
      "bufferView": 0,
      "byteOffset": 0,
      "componentType": 5123,
      "normalized": false,
      "count": 110772,
      "type": "SCALAR",
      "max": [
        110771.0
      ],
      "min": [
        0.0
      ],
      "name": "buffer-0-accessor-indices-buffer-0-mesh-0"
    },
    {
      "bufferView": 1,
      "byteOffset": 0,
      "componentType": 5126,
      "normalized": false,
      "count": 24616,
      "type": "VEC3",
      "max": [
        15.450523990271279,
        29.41635571867568,
        0.7196928823998988
      ],
      "min": [
        14.739747311808333,
        26.952329900004134,
        -0.10954657580687144
      ],
      "name": "buffer-0-accessor-position-buffer-0-mesh-0"
    },
    {
      "bufferView": 1,
      "byteOffset": 295392,
      "componentType": 5126,
      "normalized": false,
      "count": 24616,
      "type": "VEC3",
      "name": "buffer-0-accessor-color-buffer-0-mesh-0"
    }
  ],
  "asset": {
    "generator": "pygltflib@v1.16.2",
    "version": "2.0"
  },
  "bufferViews": [
    {
      "buffer": 0,
      "byteOffset": 0,
      "byteLength": 221544,
      "target": 34963,
      "name": "buffer-0-bufferview-ushort"
    },
    {
      "buffer": 0,
      "byteOffset": 221544,
      "byteLength": 590784,
      "byteStride": 12,
      "target": 34962,
      "name": "buffer-0-bufferview-vec3"
    }
  ],
  "buffers": [
    {
      "uri": "data:application/octet-stream;base64,",
      "byteLength": 812328
    }
  ],
  "meshes": [
    {
      "primitives": [
        {
          "attributes": {
            "POSITION": 1,
            "COLOR_0": 2
          },
          "indices": 0,
          "mode": 4
        }
      ]
    }
  ],
  "nodes": [
    {
      "mesh": 0
    }
  ],
  "scene": 0,
  "scenes": [
    {
      "nodes": [
        0
      ]
    }
  ]
}