{
  "extras": {
    "bounding_box": [
      [
        18.11188507080078,
        25.22954559326172,
        0.24549241364002228
      ],
      [
        19.918577194213867,
        25.22954559326172,
        0.24549241364002228
      ],
      [
        18.11188507080078,
        28.929662704467773,
        0.24549241364002228
      ],
      [
        18.11188507080078,
        25.22954559326172,
        0.7314721941947937
      ],
      [
        19.918577194213867,
        28.929662704467773,
        0.7314721941947937
      ],
      [
        18.11188507080078,
        28.929662704467773,
        0.7314721941947937
      ],
      [
        19.918577194213867,
        25.22954559326172,
        0.7314721941947937
      ],
      [
        19.918577194213867,
        28.929662704467773,
        0.24549241364002228
      ]
    ],
    "bounding_box_size": [
      1.806692123413086,
      3.7001171112060547,
      0.4859797805547714
    ],
    "object_id": "urn:uuid:e9455d6c-d1a4-11ef-b2d9-8c554a00f1ad",
    "object_name": "conferencetable",
    "object_type": "table"
  },
  "accessors": [
    {
      "bufferView": 0,
      "byteOffset": 0,
      "componentType": 5125,
      "normalized": false,
      "count": 304380,
      "type": "SCALAR",
      "max": [
        304379.0
      ],
      "min": [
        0.0
      ],
      "name": "buffer-0-accessor-indices-buffer-0-mesh-0"
    },
    {
      "bufferView": 1,
      "byteOffset": 0,
      "componentType": 5126,
      "normalized": false,
      "count": 67640,
      "type": "VEC3",
      "max": [
        19.93968687758687,
        28.9376622641734,
        0.7344592766525151
      ],
      "min": [
        18.10351334922546,
        25.2176223885321,
        0.23368467800849385
      ],
      "name": "buffer-0-accessor-position-buffer-0-mesh-0"
    },
    {
      "bufferView": 1,
      "byteOffset": 811680,
      "componentType": 5126,
      "normalized": false,
      "count": 67640,
      "type": "VEC3",
      "name": "buffer-0-accessor-color-buffer-0-mesh-0"
    }
  ],
  "asset": {
    "generator": "pygltflib@v1.16.2",
    "version": "2.0"
  },
  "bufferViews": [
    {
      "buffer": 0,
      "byteOffset": 0,
      "byteLength": 1217520,
      "target": 34963,
      "name": "buffer-0-bufferview-uint"
    },
    {
      "buffer": 0,
      "byteOffset": 1217520,
      "byteLength": 1623360,
      "byteStride": 12,
      "target": 34962,
      "name": "buffer-0-bufferview-vec3"
    }
  ],
  "buffers": [
    {
      "uri": "data:application/octet-stream;base64,",
      "byteLength": 2840880
    }
  ],
  "meshes": [
    {
      "primitives": [
        {
          "attributes": {
            "POSITION": 1,
            "COLOR_0": 2
          },
          "indices": 0,
          "mode": 4
        }
      ]
    }
  ],
  "nodes": [
    {
      "mesh": 0
    }
  ],
  "scene": 0,
  "scenes": [
    {
      "nodes": [
        0
      ]
    }
  ]
}