{
  "extras": {
    "bounding_box": [
      [
        17.934850692749023,
        23.86126708984375,
        -0.03640038147568703
      ],
      [
        20.25843048095703,
        23.86126708984375,
        -0.03640038147568703
      ],
      [
        17.934850692749023,
        24.408580780029297,
        -0.03640038147568703
      ],
      [
        17.934850692749023,
        23.86126708984375,
        0.7696017622947693
      ],
      [
        20.25843048095703,
        24.408580780029297,
        0.7696017622947693
      ],
      [
        17.934850692749023,
        24.408580780029297,
        0.7696017622947693
      ],
      [
        20.25843048095703,
        23.86126708984375,
        0.7696017622947693
      ],
      [
        20.25843048095703,
        24.408580780029297,
        -0.03640038147568703
      ]
    ],
    "bounding_box_size": [
      2.323579788208008,
      0.5473136901855469,
      0.8060021437704563
    ],
    "object_id": "urn:uuid:35770a01-d1a5-11ef-9ba9-8c554a00f1ad",
    "object_type": "cabinet"
  },
  "accessors": [
    {
      "bufferView": 0,
      "byteOffset": 0,
      "componentType": 5123,
      "normalized": false,
      "count": 109728,
      "type": "SCALAR",
      "max": [
        109727.0
      ],
      "min": [
        0.0
      ],
      "name": "buffer-0-accessor-indices-buffer-0-mesh-0"
    },
    {
      "bufferView": 1,
      "byteOffset": 0,
      "componentType": 5126,
      "normalized": false,
      "count": 24384,
      "type": "VEC3",
      "max": [
        20.269127145016675,
        24.420034430184394,
        0.7811988402994331
      ],
      "min": [
        17.9232143640992,
        23.85132830147713,
        -0.04816426406533225
      ],
      "name": "buffer-0-accessor-position-buffer-0-mesh-0"
    },
    {
      "bufferView": 1,
      "byteOffset": 292608,
      "componentType": 5126,
      "normalized": false,
      "count": 24384,
      "type": "VEC3",
      "name": "buffer-0-accessor-color-buffer-0-mesh-0"
    }
  ],
  "asset": {
    "generator": "pygltflib@v1.16.2",
    "version": "2.0"
  },
  "bufferViews": [
    {
      "buffer": 0,
      "byteOffset": 0,
      "byteLength": 219456,
      "target": 34963,
      "name": "buffer-0-bufferview-ushort"
    },
    {
      "buffer": 0,
      "byteOffset": 219456,
      "byteLength": 585216,
      "byteStride": 12,
      "target": 34962,
      "name": "buffer-0-bufferview-vec3"
    }
  ],
  "buffers": [
    {
      "uri": "data:application/octet-stream;base64,",
      "byteLength": 804672
    }
  ],
  "meshes": [
    {
      "primitives": [
        {
          "attributes": {
            "POSITION": 1,
            "COLOR_0": 2
          },
          "indices": 0,
          "mode": 4
        }
      ]
    }
  ],
  "nodes": [
    {
      "mesh": 0
    }
  ],
  "scene": 0,
  "scenes": [
    {
      "nodes": [
        0
      ]
    }
  ]
}