{
  "extras": {
    "bounding_box": [
      [
        18.177791595458984,
        23.74485969543457,
        0.7812052965164185
      ],
      [
        19.853166580200195,
        23.74485969543457,
        0.7812052965164185
      ],
      [
        18.177791595458984,
        23.93671417236328,
        0.7812052965164185
      ],
      [
        18.177791595458984,
        23.74485969543457,
        2.0143935680389404
      ],
      [
        19.853166580200195,
        23.93671417236328,
        2.0143935680389404
      ],
      [
        18.177791595458984,
        23.93671417236328,
        2.0143935680389404
      ],
      [
        19.853166580200195,
        23.74485969543457,
        2.0143935680389404
      ],
      [
        19.853166580200195,
        23.93671417236328,
        0.7812052965164185
      ]
    ],
    "bounding_box_size": [
      1.675374984741211,
      0.19185447692871094,
      1.233188271522522
    ],
    "object_id": "urn:uuid:1ea7f18a-d1a5-11ef-a758-8c554a00f1ad",
    "object_type": "monitor"
  },
  "accessors": [
    {
      "bufferView": 0,
      "byteOffset": 0,
      "componentType": 5123,
      "normalized": false,
      "count": 82296,
      "type": "SCALAR",
      "max": [
        82295.0
      ],
      "min": [
        0.0
      ],
      "name": "buffer-0-accessor-indices-buffer-0-mesh-0"
    },
    {
      "bufferView": 1,
      "byteOffset": 0,
      "componentType": 5126,
      "normalized": false,
      "count": 18288,
      "type": "VEC3",
      "max": [
        19.86616179847995,
        23.952469311570432,
        2.0295546913133244
      ],
      "min": [
        18.169425714108563,
        23.73431752929411,
        0.7691221714945806
      ],
      "name": "buffer-0-accessor-position-buffer-0-mesh-0"
    },
    {
      "bufferView": 1,
      "byteOffset": 219456,
      "componentType": 5126,
      "normalized": false,
      "count": 18288,
      "type": "VEC3",
      "name": "buffer-0-accessor-color-buffer-0-mesh-0"
    }
  ],
  "asset": {
    "generator": "pygltflib@v1.16.2",
    "version": "2.0"
  },
  "bufferViews": [
    {
      "buffer": 0,
      "byteOffset": 0,
      "byteLength": 164592,
      "target": 34963,
      "name": "buffer-0-bufferview-ushort"
    },
    {
      "buffer": 0,
      "byteOffset": 164592,
      "byteLength": 438912,
      "byteStride": 12,
      "target": 34962,
      "name": "buffer-0-bufferview-vec3"
    }
  ],
  "buffers": [
    {
      "uri": "data:application/octet-stream;base64,",
      "byteLength": 603504
    }
  ],
  "meshes": [
    {
      "primitives": [
        {
          "attributes": {
            "POSITION": 1,
            "COLOR_0": 2
          },
          "indices": 0,
          "mode": 4
        }
      ]
    }
  ],
  "nodes": [
    {
      "mesh": 0
    }
  ],
  "scene": 0,
  "scenes": [
    {
      "nodes": [
        0
      ]
    }
  ]
}