{
  "extras": {
    "bounding_box": [
      [
        20.897748947143555,
        23.85640525817871,
        -0.07456634193658829
      ],
      [
        21.37876319885254,
        23.85640525817871,
        -0.07456634193658829
      ],
      [
        20.897748947143555,
        30.253984451293945,
        -0.07456634193658829
      ],
      [
        20.897748947143555,
        23.85640525817871,
        3.1177566051483154
      ],
      [
        21.37876319885254,
        30.253984451293945,
        3.1177566051483154
      ],
      [
        20.897748947143555,
        30.253984451293945,
        3.1177566051483154
      ],
      [
        21.37876319885254,
        23.85640525817871,
        3.1177566051483154
      ],
      [
        21.37876319885254,
        30.253984451293945,
        -0.07456634193658829
      ]
    ],
    "object_id": "urn:uuid:a13c8abe-6931-11ef-9505-8c554a00f1ad",
    "object_name": "Wall_1",
    "object_type": "wall"
  },
  "accessors": [
    {
      "bufferView": 0,
      "byteOffset": 0,
      "componentType": 5123,
      "normalized": false,
      "count": 136494,
      "type": "SCALAR",
      "max": [
        136493.0
      ],
      "min": [
        0.0
      ],
      "name": "buffer-0-accessor-indices-buffer-0-mesh-0"
    },
    {
      "bufferView": 1,
      "byteOffset": 0,
      "componentType": 5126,
      "normalized": false,
      "count": 20211,
      "type": "VEC3",
      "max": [
        21.375059127807617,
        30.253984451293945,
        3.1170225143432617
      ],
      "min": [
        20.897748947143555,
        23.859012603759766,
        -0.07456634193658829
      ],
      "name": "buffer-0-accessor-position-buffer-0-mesh-0"
    },
    {
      "bufferView": 1,
      "byteOffset": 242532,
      "componentType": 5126,
      "normalized": false,
      "count": 20211,
      "type": "VEC3",
      "name": "buffer-0-accessor-normal-buffer-0-mesh-0"
    },
    {
      "bufferView": 1,
      "byteOffset": 485064,
      "componentType": 5126,
      "normalized": false,
      "count": 20211,
      "type": "VEC3",
      "name": "buffer-0-accessor-color-buffer-0-mesh-0"
    }
  ],
  "asset": {
    "generator": "pygltflib@v1.16.2",
    "version": "2.0"
  },
  "bufferViews": [
    {
      "buffer": 0,
      "byteOffset": 0,
      "byteLength": 272988,
      "target": 34963,
      "name": "buffer-0-bufferview-ushort"
    },
    {
      "buffer": 0,
      "byteOffset": 272988,
      "byteLength": 727596,
      "byteStride": 12,
      "target": 34962,
      "name": "buffer-0-bufferview-vec3"
    }
  ],
  "buffers": [
    {
      "uri": "data:application/octet-stream;base64,",
      "byteLength": 1000584
    }
  ],
  "meshes": [
    {
      "primitives": [
        {
          "attributes": {
            "POSITION": 1,
            "NORMAL": 2,
            "COLOR_0": 3
          },
          "indices": 0,
          "mode": 4
        }
      ]
    }
  ],
  "nodes": [
    {
      "mesh": 0
    }
  ],
  "scene": 0,
  "scenes": [
    {
      "nodes": [
        0
      ]
    }
  ]
}