{
  "extras": {
    "bounding_box": [
      [
        14.50497055053711,
        26.582836151123047,
        0.15780577063560486
      ],
      [
        14.863057136535645,
        26.582836151123047,
        0.15780577063560486
      ],
      [
        14.50497055053711,
        30.324413299560547,
        0.15780577063560486
      ],
      [
        14.50497055053711,
        26.582836151123047,
        3.165790557861328
      ],
      [
        14.863057136535645,
        30.324413299560547,
        3.165790557861328
      ],
      [
        14.50497055053711,
        30.324413299560547,
        3.165790557861328
      ],
      [
        14.863057136535645,
        26.582836151123047,
        3.165790557861328
      ],
      [
        14.863057136535645,
        30.324413299560547,
        0.15780577063560486
      ]
    ],
    "object_id": "urn:uuid:f07a4dc7-6931-11ef-8384-8c554a00f1ad",
    "object_name": "Wall_5",
    "object_type": "wall"
  },
  "accessors": [
    {
      "bufferView": 0,
      "byteOffset": 0,
      "componentType": 5123,
      "normalized": false,
      "count": 63384,
      "type": "SCALAR",
      "max": [
        63383.0
      ],
      "min": [
        0.0
      ],
      "name": "buffer-0-accessor-indices-buffer-0-mesh-0"
    },
    {
      "bufferView": 1,
      "byteOffset": 0,
      "componentType": 5126,
      "normalized": false,
      "count": 9528,
      "type": "VEC3",
      "max": [
        14.862704277038574,
        30.323671340942383,
        3.164653778076172
      ],
      "min": [
        14.507997512817383,
        26.58411979675293,
        0.16113042831420898
      ],
      "name": "buffer-0-accessor-position-buffer-0-mesh-0"
    },
    {
      "bufferView": 1,
      "byteOffset": 114336,
      "componentType": 5126,
      "normalized": false,
      "count": 9528,
      "type": "VEC3",
      "name": "buffer-0-accessor-normal-buffer-0-mesh-0"
    },
    {
      "bufferView": 1,
      "byteOffset": 228672,
      "componentType": 5126,
      "normalized": false,
      "count": 9528,
      "type": "VEC3",
      "name": "buffer-0-accessor-color-buffer-0-mesh-0"
    }
  ],
  "asset": {
    "generator": "pygltflib@v1.16.2",
    "version": "2.0"
  },
  "bufferViews": [
    {
      "buffer": 0,
      "byteOffset": 0,
      "byteLength": 126768,
      "target": 34963,
      "name": "buffer-0-bufferview-ushort"
    },
    {
      "buffer": 0,
      "byteOffset": 126768,
      "byteLength": 343008,
      "byteStride": 12,
      "target": 34962,
      "name": "buffer-0-bufferview-vec3"
    }
  ],
  "buffers": [
    {
      "uri": "data:application/octet-stream;base64,",
      "byteLength": 469776
    }
  ],
  "meshes": [
    {
      "primitives": [
        {
          "attributes": {
            "POSITION": 1,
            "NORMAL": 2,
            "COLOR_0": 3
          },
          "indices": 0,
          "mode": 4
        }
      ]
    }
  ],
  "nodes": [
    {
      "mesh": 0
    }
  ],
  "scene": 0,
  "scenes": [
    {
      "nodes": [
        0
      ]
    }
  ]
}