{
  "extras": {
    "bounding_box": [
      [
        14.728007316589355,
        26.22813606262207,
        -0.12217868864536285
      ],
      [
        17.1524715423584,
        26.22813606262207,
        -0.12217868864536285
      ],
      [
        14.728007316589355,
        26.591848373413086,
        -0.12217868864536285
      ],
      [
        14.728007316589355,
        26.22813606262207,
        3.1523654460906982
      ],
      [
        17.1524715423584,
        26.591848373413086,
        3.1523654460906982
      ],
      [
        14.728007316589355,
        26.591848373413086,
        3.1523654460906982
      ],
      [
        17.1524715423584,
        26.22813606262207,
        3.1523654460906982
      ],
      [
        17.1524715423584,
        26.591848373413086,
        -0.12217868864536285
      ]
    ],
    "object_id": "urn:uuid:ecea60f5-6931-11ef-966f-8c554a00f1ad",
    "object_name": "Wall_4",
    "object_type": "wall"
  },
  "accessors": [
    {
      "bufferView": 0,
      "byteOffset": 0,
      "componentType": 5123,
      "normalized": false,
      "count": 44136,
      "type": "SCALAR",
      "max": [
        44135.0
      ],
      "min": [
        0.0
      ],
      "name": "buffer-0-accessor-indices-buffer-0-mesh-0"
    },
    {
      "bufferView": 1,
      "byteOffset": 0,
      "componentType": 5126,
      "normalized": false,
      "count": 6797,
      "type": "VEC3",
      "max": [
        17.151748657226562,
        26.591848373413086,
        3.1523654460906982
      ],
      "min": [
        14.72895336151123,
        26.228513717651367,
        -0.12055516242980957
      ],
      "name": "buffer-0-accessor-position-buffer-0-mesh-0"
    },
    {
      "bufferView": 1,
      "byteOffset": 81564,
      "componentType": 5126,
      "normalized": false,
      "count": 6797,
      "type": "VEC3",
      "name": "buffer-0-accessor-normal-buffer-0-mesh-0"
    },
    {
      "bufferView": 1,
      "byteOffset": 163128,
      "componentType": 5126,
      "normalized": false,
      "count": 6797,
      "type": "VEC3",
      "name": "buffer-0-accessor-color-buffer-0-mesh-0"
    }
  ],
  "asset": {
    "generator": "pygltflib@v1.16.2",
    "version": "2.0"
  },
  "bufferViews": [
    {
      "buffer": 0,
      "byteOffset": 0,
      "byteLength": 88272,
      "target": 34963,
      "name": "buffer-0-bufferview-ushort"
    },
    {
      "buffer": 0,
      "byteOffset": 88272,
      "byteLength": 244692,
      "byteStride": 12,
      "target": 34962,
      "name": "buffer-0-bufferview-vec3"
    }
  ],
  "buffers": [
    {
      "uri": "data:application/octet-stream;base64,",
      "byteLength": 332964
    }
  ],
  "meshes": [
    {
      "primitives": [
        {
          "attributes": {
            "POSITION": 1,
            "NORMAL": 2,
            "COLOR_0": 3
          },
          "indices": 0,
          "mode": 4
        }
      ]
    }
  ],
  "nodes": [
    {
      "mesh": 0
    }
  ],
  "scene": 0,
  "scenes": [
    {
      "nodes": [
        0
      ]
    }
  ]
}