{
  "extras": {
    "bounding_box": [
      [
        16.81704330444336,
        23.80767059326172,
        -0.05167306214570999
      ],
      [
        17.196001052856445,
        23.80767059326172,
        -0.05167306214570999
      ],
      [
        16.81704330444336,
        26.57370948791504,
        -0.05167306214570999
      ],
      [
        16.81704330444336,
        23.80767059326172,
        2.783582925796509
      ],
      [
        17.196001052856445,
        26.57370948791504,
        2.783582925796509
      ],
      [
        16.81704330444336,
        26.57370948791504,
        2.783582925796509
      ],
      [
        17.196001052856445,
        23.80767059326172,
        2.783582925796509
      ],
      [
        17.196001052856445,
        26.57370948791504,
        -0.05167306214570999
      ]
    ],
    "object_id": "urn:uuid:ea595101-6931-11ef-926e-8c554a00f1ad",
    "object_name": "Wall_3",
    "object_type": "wall"
  },
  "accessors": [
    {
      "bufferView": 0,
      "byteOffset": 0,
      "componentType": 5123,
      "normalized": false,
      "count": 38238,
      "type": "SCALAR",
      "max": [
        38237.0
      ],
      "min": [
        0.0
      ],
      "name": "buffer-0-accessor-indices-buffer-0-mesh-0"
    },
    {
      "bufferView": 1,
      "byteOffset": 0,
      "componentType": 5126,
      "normalized": false,
      "count": 6025,
      "type": "VEC3",
      "max": [
        17.194299697875977,
        26.57370948791504,
        2.783545970916748
      ],
      "min": [
        16.819095611572266,
        23.810443878173828,
        -0.05161508917808533
      ],
      "name": "buffer-0-accessor-position-buffer-0-mesh-0"
    },
    {
      "bufferView": 1,
      "byteOffset": 72300,
      "componentType": 5126,
      "normalized": false,
      "count": 6025,
      "type": "VEC3",
      "name": "buffer-0-accessor-normal-buffer-0-mesh-0"
    },
    {
      "bufferView": 1,
      "byteOffset": 144600,
      "componentType": 5126,
      "normalized": false,
      "count": 6025,
      "type": "VEC3",
      "name": "buffer-0-accessor-color-buffer-0-mesh-0"
    }
  ],
  "asset": {
    "generator": "pygltflib@v1.16.2",
    "version": "2.0"
  },
  "bufferViews": [
    {
      "buffer": 0,
      "byteOffset": 0,
      "byteLength": 76476,
      "target": 34963,
      "name": "buffer-0-bufferview-ushort"
    },
    {
      "buffer": 0,
      "byteOffset": 76476,
      "byteLength": 216900,
      "byteStride": 12,
      "target": 34962,
      "name": "buffer-0-bufferview-vec3"
    }
  ],
  "buffers": [
    {
      "uri": "data:application/octet-stream;base64,",
      "byteLength": 293376
    }
  ],
  "meshes": [
    {
      "primitives": [
        {
          "attributes": {
            "POSITION": 1,
            "NORMAL": 2,
            "COLOR_0": 3
          },
          "indices": 0,
          "mode": 4
        }
      ]
    }
  ],
  "nodes": [
    {
      "mesh": 0
    }
  ],
  "scene": 0,
  "scenes": [
    {
      "nodes": [
        0
      ]
    }
  ]
}