{
  "extras": {
    "bounding_box": [
      [
        17.01357078552246,
        23.682453155517578,
        -0.08429521322250366
      ],
      [
        20.994535446166992,
        23.682453155517578,
        -0.08429521322250366
      ],
      [
        17.01357078552246,
        23.98311996459961,
        -0.08429521322250366
      ],
      [
        17.01357078552246,
        23.682453155517578,
        2.7922632694244385
      ],
      [
        20.994535446166992,
        23.98311996459961,
        2.7922632694244385
      ],
      [
        17.01357078552246,
        23.98311996459961,
        2.7922632694244385
      ],
      [
        20.994535446166992,
        23.682453155517578,
        2.7922632694244385
      ],
      [
        20.994535446166992,
        23.98311996459961,
        -0.08429521322250366
      ]
    ],
    "object_id": "urn:uuid:e50dc576-6931-11ef-82f3-8c554a00f1ad",
    "object_name": "Wall_2 ",
    "object_type": "wall"
  },
  "accessors": [
    {
      "bufferView": 0,
      "byteOffset": 0,
      "componentType": 5123,
      "normalized": false,
      "count": 56724,
      "type": "SCALAR",
      "max": [
        56723.0
      ],
      "min": [
        0.0
      ],
      "name": "buffer-0-accessor-indices-buffer-0-mesh-0"
    },
    {
      "bufferView": 1,
      "byteOffset": 0,
      "componentType": 5126,
      "normalized": false,
      "count": 8805,
      "type": "VEC3",
      "max": [
        20.994226455688477,
        23.982267379760742,
        2.7917261123657227
      ],
      "min": [
        17.015161514282227,
        23.684162139892578,
        -0.08387626707553864
      ],
      "name": "buffer-0-accessor-position-buffer-0-mesh-0"
    },
    {
      "bufferView": 1,
      "byteOffset": 105660,
      "componentType": 5126,
      "normalized": false,
      "count": 8805,
      "type": "VEC3",
      "name": "buffer-0-accessor-normal-buffer-0-mesh-0"
    },
    {
      "bufferView": 1,
      "byteOffset": 211320,
      "componentType": 5126,
      "normalized": false,
      "count": 8805,
      "type": "VEC3",
      "name": "buffer-0-accessor-color-buffer-0-mesh-0"
    }
  ],
  "asset": {
    "generator": "pygltflib@v1.16.2",
    "version": "2.0"
  },
  "bufferViews": [
    {
      "buffer": 0,
      "byteOffset": 0,
      "byteLength": 113448,
      "target": 34963,
      "name": "buffer-0-bufferview-ushort"
    },
    {
      "buffer": 0,
      "byteOffset": 113448,
      "byteLength": 316980,
      "byteStride": 12,
      "target": 34962,
      "name": "buffer-0-bufferview-vec3"
    }
  ],
  "buffers": [
    {
      "uri": "data:application/octet-stream;base64,",
      "byteLength": 430428
    }
  ],
  "meshes": [
    {
      "primitives": [
        {
          "attributes": {
            "POSITION": 1,
            "NORMAL": 2,
            "COLOR_0": 3
          },
          "indices": 0,
          "mode": 4
        }
      ]
    }
  ],
  "nodes": [
    {
      "mesh": 0
    }
  ],
  "scene": 0,
  "scenes": [
    {
      "nodes": [
        0
      ]
    }
  ]
}