{
  "extras": {
    "bounding_box": [
      [
        14.72965145111084,
        29.857995986938477,
        -0.1454307585954666
      ],
      [
        21.270414352416992,
        29.857995986938477,
        -0.1454307585954666
      ],
      [
        14.72965145111084,
        30.50706672668457,
        -0.1454307585954666
      ],
      [
        14.72965145111084,
        29.857995986938477,
        3.177687168121338
      ],
      [
        21.270414352416992,
        30.50706672668457,
        3.177687168121338
      ],
      [
        14.72965145111084,
        30.50706672668457,
        3.177687168121338
      ],
      [
        21.270414352416992,
        29.857995986938477,
        3.177687168121338
      ],
      [
        21.270414352416992,
        30.50706672668457,
        -0.1454307585954666
      ]
    ],
    "object_id": "urn:uuid:f269b140-6931-11ef-8a14-8c554a00f1ad",
    "object_name": "Wall_6",
    "object_type": "wall"
  },
  "accessors": [
    {
      "bufferView": 0,
      "byteOffset": 0,
      "componentType": 5123,
      "normalized": false,
      "count": 128598,
      "type": "SCALAR",
      "max": [
        128597.0
      ],
      "min": [
        0.0
      ],
      "name": "buffer-0-accessor-indices-buffer-0-mesh-0"
    },
    {
      "bufferView": 1,
      "byteOffset": 0,
      "componentType": 5126,
      "normalized": false,
      "count": 19335,
      "type": "VEC3",
      "max": [
        21.267723083496094,
        30.50108528137207,
        3.176597833633423
      ],
      "min": [
        14.7308988571167,
        29.858224868774414,
        -0.14515824615955353
      ],
      "name": "buffer-0-accessor-position-buffer-0-mesh-0"
    },
    {
      "bufferView": 1,
      "byteOffset": 232020,
      "componentType": 5126,
      "normalized": false,
      "count": 19335,
      "type": "VEC3",
      "name": "buffer-0-accessor-normal-buffer-0-mesh-0"
    },
    {
      "bufferView": 1,
      "byteOffset": 464040,
      "componentType": 5126,
      "normalized": false,
      "count": 19335,
      "type": "VEC3",
      "name": "buffer-0-accessor-color-buffer-0-mesh-0"
    }
  ],
  "asset": {
    "generator": "pygltflib@v1.16.2",
    "version": "2.0"
  },
  "bufferViews": [
    {
      "buffer": 0,
      "byteOffset": 0,
      "byteLength": 257196,
      "target": 34963,
      "name": "buffer-0-bufferview-ushort"
    },
    {
      "buffer": 0,
      "byteOffset": 257196,
      "byteLength": 696060,
      "byteStride": 12,
      "target": 34962,
      "name": "buffer-0-bufferview-vec3"
    }
  ],
  "buffers": [
    {
      "uri": "data:application/octet-stream;base64,",
      "byteLength": 953256
    }
  ],
  "meshes": [
    {
      "primitives": [
        {
          "attributes": {
            "POSITION": 1,
            "NORMAL": 2,
            "COLOR_0": 3
          },
          "indices": 0,
          "mode": 4
        }
      ]
    }
  ],
  "nodes": [
    {
      "mesh": 0
    }
  ],
  "scene": 0,
  "scenes": [
    {
      "nodes": [
        0
      ]
    }
  ]
}