{
  "extras": {
    "x_length": 1.7760675066321392,
    "y_length": 1.316158999868812,
    "z_length": 0.13701743913545383
  },
  "accessors": [
    {
      "bufferView": 0,
      "byteOffset": 0,
      "componentType": 5123,
      "normalized": false,
      "count": 15894,
      "type": "SCALAR",
      "max": [
        15893.0
      ],
      "min": [
        0.0
      ],
      "name": "buffer-0-accessor-indices-buffer-0-mesh-0"
    },
    {
      "bufferView": 1,
      "byteOffset": 0,
      "componentType": 5126,
      "normalized": false,
      "count": 2267,
      "type": "VEC3",
      "max": [
        2.4708962440490723,
        -3.1047561168670654,
        2.1790027618408203
      ],
      "min": [
        1.3735806941986084,
        -4.490351676940918,
        0.9289308786392212
      ],
      "name": "buffer-0-accessor-position-buffer-0-mesh-0"
    },
    {
      "bufferView": 1,
      "byteOffset": 27204,
      "componentType": 5126,
      "normalized": false,
      "count": 2267,
      "type": "VEC3",
      "name": "buffer-0-accessor-normal-buffer-0-mesh-0"
    },
    {
      "bufferView": 1,
      "byteOffset": 54408,
      "componentType": 5126,
      "normalized": false,
      "count": 2267,
      "type": "VEC3",
      "name": "buffer-0-accessor-color-buffer-0-mesh-0"
    }
  ],
  "asset": {
    "generator": "pygltflib@v1.16.2",
    "version": "2.0"
  },
  "bufferViews": [
    {
      "buffer": 0,
      "byteOffset": 0,
      "byteLength": 31788,
      "target": 34963,
      "name": "buffer-0-bufferview-ushort"
    },
    {
      "buffer": 0,
      "byteOffset": 31788,
      "byteLength": 81612,
      "byteStride": 12,
      "target": 34962,
      "name": "buffer-0-bufferview-vec3"
    }
  ],
  "buffers": [
    {
      "uri": "data:application/octet-stream;base64,",
      "byteLength": 113400
    }
  ],
  "meshes": [
    {
      "primitives": [
        {
          "attributes": {
            "POSITION": 1,
            "NORMAL": 2,
            "COLOR_0": 3
          },
          "indices": 0,
          "mode": 4
        }
      ]
    }
  ],
  "nodes": [
    {
      "mesh": 0
    }
  ],
  "scene": 0,
  "scenes": [
    {
      "nodes": [
        0
      ]
    }
  ]
}