{
  "extras": {
    "bounding_box": [
      [
        20.62897300720215,
        29.3345947265625,
        -0.18717779219150543
      ],
      [
        21.204593658447266,
        29.3345947265625,
        -0.18717779219150543
      ],
      [
        20.62897300720215,
        29.954795837402344,
        -0.18717779219150543
      ],
      [
        20.62897300720215,
        29.3345947265625,
        0.8145179152488708
      ],
      [
        21.204593658447266,
        29.954795837402344,
        0.8145179152488708
      ],
      [
        20.62897300720215,
        29.954795837402344,
        0.8145179152488708
      ],
      [
        21.204593658447266,
        29.3345947265625,
        0.8145179152488708
      ],
      [
        21.204593658447266,
        29.954795837402344,
        -0.18717779219150543
      ]
    ],
    "bounding_box_size": [
      0.5756206512451172,
      0.6202011108398438,
      1.0016957074403763
    ],
    "object_id": "urn:uuid:1bf24f88-d1a5-11ef-b285-8c554a00f1ad",
    "object_type": "chair"
  },
  "accessors": [
    {
      "bufferView": 0,
      "byteOffset": 0,
      "componentType": 5123,
      "normalized": false,
      "count": 43272,
      "type": "SCALAR",
      "max": [
        43271.0
      ],
      "min": [
        0.0
      ],
      "name": "buffer-0-accessor-indices-buffer-0-mesh-0"
    },
    {
      "bufferView": 1,
      "byteOffset": 0,
      "componentType": 5126,
      "normalized": false,
      "count": 9616,
      "type": "VEC3",
      "max": [
        21.225198366393684,
        29.97454061155319,
        0.8359114516096293
      ],
      "min": [
        20.624093939289956,
        29.325347830281167,
        -0.19798816300877986
      ],
      "name": "buffer-0-accessor-position-buffer-0-mesh-0"
    },
    {
      "bufferView": 1,
      "byteOffset": 115392,
      "componentType": 5126,
      "normalized": false,
      "count": 9616,
      "type": "VEC3",
      "name": "buffer-0-accessor-color-buffer-0-mesh-0"
    }
  ],
  "asset": {
    "generator": "pygltflib@v1.16.2",
    "version": "2.0"
  },
  "bufferViews": [
    {
      "buffer": 0,
      "byteOffset": 0,
      "byteLength": 86544,
      "target": 34963,
      "name": "buffer-0-bufferview-ushort"
    },
    {
      "buffer": 0,
      "byteOffset": 86544,
      "byteLength": 230784,
      "byteStride": 12,
      "target": 34962,
      "name": "buffer-0-bufferview-vec3"
    }
  ],
  "buffers": [
    {
      "uri": "data:application/octet-stream;base64,",
      "byteLength": 317328
    }
  ],
  "meshes": [
    {
      "primitives": [
        {
          "attributes": {
            "POSITION": 1,
            "COLOR_0": 2
          },
          "indices": 0,
          "mode": 4
        }
      ]
    }
  ],
  "nodes": [
    {
      "mesh": 0
    }
  ],
  "scene": 0,
  "scenes": [
    {
      "nodes": [
        0
      ]
    }
  ]
}