{
  "extras": {
    "bounding_box": [
      [
        14.728007316589355,
        26.22813606262207,
        -0.12217868864536285
      ],
      [
        17.1524715423584,
        26.22813606262207,
        -0.12217868864536285
      ],
      [
        14.728007316589355,
        26.591848373413086,
        -0.12217868864536285
      ],
      [
        14.728007316589355,
        26.22813606262207,
        3.1523654460906982
      ],
      [
        17.1524715423584,
        26.591848373413086,
        3.1523654460906982
      ],
      [
        14.728007316589355,
        26.591848373413086,
        3.1523654460906982
      ],
      [
        17.1524715423584,
        26.22813606262207,
        3.1523654460906982
      ],
      [
        17.1524715423584,
        26.591848373413086,
        -0.12217868864536285
      ]
    ],
    "bounding_box_size": [
      2.424464225769043,
      0.3637123107910156,
      3.274544134736061
    ],
    "object_id": "urn:uuid:a9e6475e-84a7-11ef-a4b5-8c554a00f1ad",
    "object_type": "wall"
  },
  "accessors": [
    {
      "bufferView": 0,
      "byteOffset": 0,
      "componentType": 5125,
      "normalized": false,
      "count": 295524,
      "type": "SCALAR",
      "max": [
        295523.0
      ],
      "min": [
        0.0
      ],
      "name": "buffer-0-accessor-indices-buffer-0-mesh-0"
    },
    {
      "bufferView": 1,
      "byteOffset": 0,
      "componentType": 5126,
      "normalized": false,
      "count": 65672,
      "type": "VEC3",
      "max": [
        17.16022429575415,
        26.596169322341762,
        3.1646255633520908
      ],
      "min": [
        14.71709350329541,
        26.21665385943555,
        -0.1324150206456287
      ],
      "name": "buffer-0-accessor-position-buffer-0-mesh-0"
    },
    {
      "bufferView": 1,
      "byteOffset": 788064,
      "componentType": 5126,
      "normalized": false,
      "count": 65672,
      "type": "VEC3",
      "name": "buffer-0-accessor-color-buffer-0-mesh-0"
    }
  ],
  "asset": {
    "generator": "pygltflib@v1.16.2",
    "version": "2.0"
  },
  "bufferViews": [
    {
      "buffer": 0,
      "byteOffset": 0,
      "byteLength": 1182096,
      "target": 34963,
      "name": "buffer-0-bufferview-uint"
    },
    {
      "buffer": 0,
      "byteOffset": 1182096,
      "byteLength": 1576128,
      "byteStride": 12,
      "target": 34962,
      "name": "buffer-0-bufferview-vec3"
    }
  ],
  "buffers": [
    {
      "uri": "data:application/octet-stream;base64,",
      "byteLength": 2758224
    }
  ],
  "meshes": [
    {
      "primitives": [
        {
          "attributes": {
            "POSITION": 1,
            "COLOR_0": 2
          },
          "indices": 0,
          "mode": 4
        }
      ]
    }
  ],
  "nodes": [
    {
      "mesh": 0
    }
  ],
  "scene": 0,
  "scenes": [
    {
      "nodes": [
        0
      ]
    }
  ]
}