{
  "extras": {
    "bounding_box": [
      [
        14.764240264892578,
        29.39012336730957,
        -0.05331436172127724
      ],
      [
        15.334328651428223,
        29.39012336730957,
        -0.05331436172127724
      ],
      [
        14.764240264892578,
        30.080066680908203,
        -0.05331436172127724
      ],
      [
        14.764240264892578,
        29.39012336730957,
        0.7536048293113708
      ],
      [
        15.334328651428223,
        30.080066680908203,
        0.7536048293113708
      ],
      [
        14.764240264892578,
        30.080066680908203,
        0.7536048293113708
      ],
      [
        15.334328651428223,
        29.39012336730957,
        0.7536048293113708
      ],
      [
        15.334328651428223,
        30.080066680908203,
        -0.05331436172127724
      ]
    ],
    "bounding_box_size": [
      0.5700883865356445,
      0.6899433135986328,
      0.8069191910326481
    ],
    "object_id": "urn:uuid:437881c7-d1a5-11ef-a555-8c554a00f1ad",
    "object_type": "cabinet"
  },
  "accessors": [
    {
      "bufferView": 0,
      "byteOffset": 0,
      "componentType": 5123,
      "normalized": false,
      "count": 31536,
      "type": "SCALAR",
      "max": [
        31535.0
      ],
      "min": [
        0.0
      ],
      "name": "buffer-0-accessor-indices-buffer-0-mesh-0"
    },
    {
      "bufferView": 1,
      "byteOffset": 0,
      "componentType": 5126,
      "normalized": false,
      "count": 7008,
      "type": "VEC3",
      "max": [
        15.337366721383548,
        30.082466711749706,
        0.761500254470441
      ],
      "min": [
        14.75434074711817,
        29.37797699284571,
        -0.0644532090721785
      ],
      "name": "buffer-0-accessor-position-buffer-0-mesh-0"
    },
    {
      "bufferView": 1,
      "byteOffset": 84096,
      "componentType": 5126,
      "normalized": false,
      "count": 7008,
      "type": "VEC3",
      "name": "buffer-0-accessor-color-buffer-0-mesh-0"
    }
  ],
  "asset": {
    "generator": "pygltflib@v1.16.2",
    "version": "2.0"
  },
  "bufferViews": [
    {
      "buffer": 0,
      "byteOffset": 0,
      "byteLength": 63072,
      "target": 34963,
      "name": "buffer-0-bufferview-ushort"
    },
    {
      "buffer": 0,
      "byteOffset": 63072,
      "byteLength": 168192,
      "byteStride": 12,
      "target": 34962,
      "name": "buffer-0-bufferview-vec3"
    }
  ],
  "buffers": [
    {
      "uri": "data:application/octet-stream;base64,",
      "byteLength": 231264
    }
  ],
  "meshes": [
    {
      "primitives": [
        {
          "attributes": {
            "POSITION": 1,
            "COLOR_0": 2
          },
          "indices": 0,
          "mode": 4
        }
      ]
    }
  ],
  "nodes": [
    {
      "mesh": 0
    }
  ],
  "scene": 0,
  "scenes": [
    {
      "nodes": [
        0
      ]
    }
  ]
}